<?xml version="1.0" encoding="UTF-8"?>
<svg version="1.1" xmlns="http://www.w3.org/2000/svg" width="917" height="492">
<path d="M0 0 C302.61 0 605.22 0 917 0 C917 162.36 917 324.72 917 492 C614.39 492 311.78 492 0 492 C0 329.64 0 167.28 0 0 Z " fill="#FEFEFE" transform="translate(0,0)"/>
<path d="M0 0 C-1.57313172 4.72843614 -4.20641235 8.3433843 -7.125 12.3125 C-7.59292969 12.95767578 -8.06085937 13.60285156 -8.54296875 14.26757812 C-9.6905929 15.84848894 -10.84465477 17.42472301 -12 19 C-13.24716797 18.47599609 -13.24716797 18.47599609 -14.51953125 17.94140625 C-15.60621094 17.48636719 -16.69289063 17.03132813 -17.8125 16.5625 C-18.89144531 16.11003906 -19.97039063 15.65757813 -21.08203125 15.19140625 C-29.52829806 11.74279664 -40.19233843 11.43402696 -48.75 14.875 C-50.1823301 15.55109987 -51.60110898 16.25717803 -53 17 C-53.70640625 17.29132813 -54.4128125 17.58265625 -55.140625 17.8828125 C-57.47751554 19.2869106 -57.83446405 20.56452296 -59 23 C-59.38115967 23.57484131 -59.76231934 24.14968262 -60.1550293 24.74194336 C-65.03612155 32.31271578 -66.17165468 40.86268583 -67.8125 49.5625 C-68.12553707 51.15978338 -68.43997906 52.7567921 -68.75585938 54.35351562 C-69.52278949 58.2324509 -70.2605697 62.11532729 -71 66 C-61.76 66 -52.52 66 -43 66 C-45 77 -45 77 -47 84 C-56.24 84 -65.48 84 -75 84 C-75.23340088 86.05178467 -75.46680176 88.10356934 -75.70727539 90.2175293 C-77.18409391 102.37121239 -79.31507521 114.43051802 -81.34450412 126.50119233 C-81.80289443 129.22963614 -82.25933711 131.95840452 -82.71585804 134.68716162 C-83.79353638 141.12814867 -84.8747932 147.56852791 -85.95825195 154.00854492 C-87.07023697 160.61857033 -88.17558711 167.22968179 -89.27780765 173.84134179 C-90.230949 179.55712084 -91.18847081 185.27215479 -92.14938313 190.98663253 C-92.72041069 194.3828438 -93.28979608 197.77930848 -93.85482597 201.17652321 C-94.4856652 204.96211168 -95.12366878 208.74642773 -95.76342773 212.53051758 C-95.94586533 213.63467514 -96.12830292 214.7388327 -96.31626892 215.87644958 C-100.63966678 241.23811609 -110.11877285 265.61449972 -130.99609375 281.875 C-163.37050685 304.77705556 -205.06760641 310.2801612 -243.5 303.75 C-254.09213745 301.86901587 -264.59455465 299.73003082 -275 297 C-276.15757812 296.70609375 -277.31515625 296.4121875 -278.5078125 296.109375 C-292.22883141 292.55095691 -305.83896873 288.50799 -319.390625 284.35546875 C-328.60868927 281.53343264 -337.80693504 278.97378803 -347.21484375 276.86328125 C-350.35811285 276.14639532 -353.45287518 275.34643354 -356.5625 274.5 C-358.70525903 273.98698494 -360.85161638 273.48892587 -363 273 C-363.69029297 272.82936035 -364.38058594 272.6587207 -365.09179688 272.48291016 C-380.16938054 268.87781314 -395.14060569 268.59338974 -410.5625 268.5625 C-411.54699127 268.55650787 -412.53148254 268.55051575 -413.54580688 268.54434204 C-444.04269351 268.42102688 -468.68550111 274.43439008 -496.46844482 286.59835815 C-507.21829299 291.29245734 -518.08820564 295.69761365 -529 300 C-529.73959961 300.29519531 -530.47919922 300.59039062 -531.24121094 300.89453125 C-539.39740048 304.0994823 -547.57811147 305.81804755 -556.1875 307.3125 C-557.17387451 307.48450928 -558.16024902 307.65651855 -559.17651367 307.83374023 C-581.36960787 311.37257404 -600.75906859 305.31944096 -619.2578125 292.99609375 C-643.06235734 275.66828404 -643.06235734 275.66828404 -648 264 C-645.92815703 262.29641813 -643.84457677 260.6127129 -641.75 258.9375 C-641.16347656 258.45216797 -640.57695313 257.96683594 -639.97265625 257.46679688 C-635.52233256 253.94154047 -635.52233256 253.94154047 -632.92114258 254.23266602 C-629.99326766 255.40210443 -628.79978771 257.49374365 -626.9375 260 C-615.94789721 273.85801461 -598.63859534 285.72145068 -581 289 C-554.25796877 290.85160489 -531.21219833 280.20830505 -507.25500488 269.71615601 C-472.83665243 254.65744645 -472.83665243 254.65744645 -457 252 C-455.94167969 251.81050781 -454.88335937 251.62101562 -453.79296875 251.42578125 C-440.02981537 249.12375915 -426.29219736 248.79255204 -412.375 248.8125 C-411.52973755 248.81343658 -410.6844751 248.81437317 -409.81359863 248.81533813 C-397.77314795 248.84426919 -385.89571613 248.95572406 -374 251 C-372.99582031 251.17192871 -371.99164063 251.34385742 -370.95703125 251.52099609 C-358.14790643 253.76784873 -345.48107767 256.3241619 -333 260 C-331.63940016 260.39479755 -330.27871932 260.78931603 -328.91796875 261.18359375 C-323.25449534 262.83352076 -317.60127499 264.51716934 -311.953125 266.21875 C-301.84344257 269.24873426 -291.66587237 271.95938992 -281.4453125 274.58984375 C-278.24594931 275.41365498 -275.05193061 276.25027402 -271.8671875 277.12890625 C-261.99108046 279.84856855 -252.05739377 282.07222156 -242 284 C-240.83726562 284.22945313 -239.67453125 284.45890625 -238.4765625 284.6953125 C-206.27626151 290.02449984 -171.41391697 285.54264493 -144.015625 267.2109375 C-120.9025102 250.26531189 -118.54517121 219.76932717 -114.4609375 193.40136719 C-114.16000592 191.43739587 -113.85907912 189.47342379 -113.55859375 187.50938416 C-112.70871536 181.97546726 -111.8383245 176.44470467 -110.97193909 170.91335297 C-110.64050452 168.79610539 -110.30991774 166.67872654 -109.97937012 164.56134033 C-107.74566632 150.27539527 -105.38711505 136.01111295 -103 121.75 C-102.71582214 120.04759155 -102.71582214 120.04759155 -102.42590332 118.31079102 C-101.88935501 115.09760766 -101.35136487 111.88467061 -100.8125 108.671875 C-100.65771179 107.7474762 -100.50292358 106.82307739 -100.34344482 105.8706665 C-99.56506984 101.25047388 -98.76834247 96.63365681 -97.94921875 92.02050781 C-97.71271606 90.68575409 -97.71271606 90.68575409 -97.47143555 89.32403564 C-97 87 -97 87 -96 84 C-102.27 84 -108.54 84 -115 84 C-115 76 -115 76 -114 71 C-107.07 69.35 -100.14 67.7 -93 66 C-92.13375 60.92625 -92.13375 60.92625 -91.25 55.75 C-87.56598458 35.10621068 -80.20277998 16.13841579 -62.69140625 3.30859375 C-43.73979243 -8.79011652 -20.17225097 -9.01406443 0 0 Z " fill="#47328E" transform="translate(734,100)"/>
<path d="M0 0 C2.90458755 2.42048963 5.31233257 5.02580448 7.5 8.125 C10.95766246 6.79057894 14.30442376 5.28359112 17.66040039 3.71313477 C35.65191407 -4.53474568 57.25956856 -10.50138825 76.875 -4.375 C84.29771288 -0.94727568 90.56658739 4.54956623 93.79296875 12.13671875 C94.02628906 12.79285156 94.25960937 13.44898438 94.5 14.125 C94.72300781 14.75019531 94.94601562 15.37539062 95.17578125 16.01953125 C98.22125027 26.19181213 96.13584061 36.83929286 94.33984375 47.046875 C94.11133872 48.38328339 93.88361015 49.71982474 93.65660095 51.05648804 C93.05214064 54.60154794 92.43639202 58.14455619 91.81813812 61.68723297 C91.30840615 64.61698366 90.80561511 67.54790679 90.30298996 70.47888374 C87.12998806 88.98134901 83.89393023 107.47359857 80.51928711 125.94042969 C80.38704239 126.66525543 80.25479767 127.39008118 80.11854553 128.13687134 C79.77446331 130.01878419 79.42812004 131.90028329 79.08154297 133.78173828 C78.48382895 137.21796655 77.99325301 140.6722289 77.5 144.125 C70.24 144.125 62.98 144.125 55.5 144.125 C56.62546651 135.12126789 56.62546651 135.12126789 57.32861328 130.87866211 C57.56525192 129.44472107 57.56525192 129.44472107 57.80667114 127.98181152 C57.97617279 126.96558716 58.14567444 125.94936279 58.3203125 124.90234375 C58.49988495 123.81949097 58.6794574 122.73663818 58.86447144 121.62097168 C59.44919987 118.10112538 60.03681999 114.58177107 60.625 111.0625 C60.82464355 109.86513214 61.02428711 108.66776428 61.22998047 107.43411255 C69.42999479 58.29598628 69.42999479 58.29598628 73.06933594 40.31152344 C74.49917384 33.05209701 73.54624602 25.86072326 70.5 19.125 C67.01808852 15.45983002 63.02134199 13.43194385 57.9831543 12.81860352 C42.74397652 12.44780358 30.84667133 13.67600658 16.79125977 19.71166992 C15.16208618 20.41126831 15.16208618 20.41126831 13.5 21.125 C13.40928223 22.1862207 13.31856445 23.24744141 13.22509766 24.34082031 C11.90673878 38.66584884 9.42950622 52.72657241 6.875 66.875 C6.20358206 70.63693614 5.53470954 74.39931878 4.86611938 78.16175842 C4.4135038 80.70870572 3.96019504 83.25552994 3.50619507 85.80223083 C1.23018349 98.58621673 -0.95691589 111.38483404 -3.125 124.1875 C-3.47085693 126.22688954 -3.81672254 128.26627761 -4.16259766 130.30566406 C-4.94354811 134.91180527 -5.72172641 139.51840297 -6.5 144.125 C-13.76 144.125 -21.02 144.125 -28.5 144.125 C-26.56608835 131.22539779 -24.39940835 118.36511374 -22.25 105.5 C-22.05124268 104.30967163 -21.85248535 103.11934326 -21.64770508 101.89294434 C-20.26860497 93.63638022 -18.88545705 85.3804996 -17.5 77.125 C-17.33185791 76.12239136 -17.16371582 75.11978271 -16.99047852 74.08679199 C-16.12535323 68.93053108 -15.2567473 63.77488727 -14.38098145 58.62042236 C-14.12821176 57.1306524 -13.87649237 55.64070383 -13.62585449 54.15057373 C-13.28494223 52.1258959 -12.93948945 50.10198411 -12.59375 48.078125 C-12.40490234 46.96598633 -12.21605469 45.85384766 -12.02148438 44.70800781 C-11.5 42.125 -11.5 42.125 -10.5 40.125 C-9.74641133 32.11542898 -10.10348965 25.38862382 -13.625 18.11328125 C-17.32962229 14.18483802 -22.38191833 13.02956393 -27.65625 12.7265625 C-29.10413158 12.71380948 -30.55232674 12.72232625 -32 12.75 C-32.77682129 12.75942627 -33.55364258 12.76885254 -34.35400391 12.77856445 C-46.88881374 13.09810917 -58.08726673 15.86340821 -69.5 21.125 C-70.49 21.455 -71.48 21.785 -72.5 22.125 C-72.653479 23.39355835 -72.653479 23.39355835 -72.81005859 24.68774414 C-74.08690844 34.77270521 -75.79303448 44.74932775 -77.61346436 54.74899292 C-80.84028164 72.49687298 -83.91178534 90.26882748 -86.875 108.0625 C-87.04380676 109.07238983 -87.21261353 110.08227966 -87.38653564 111.12277222 C-89.22108782 122.10819457 -90.98173641 133.09075097 -92.5 144.125 C-99.76 144.125 -107.02 144.125 -114.5 144.125 C-113.91898488 136.06598733 -112.97604925 128.221882 -111.56640625 120.26953125 C-111.37288574 119.1533139 -111.17936523 118.03709656 -110.97998047 116.88705444 C-110.34575342 113.23632427 -109.70411349 109.58693856 -109.0625 105.9375 C-108.61598385 103.3735358 -108.16994684 100.80948811 -107.72436523 98.24536133 C-105.63576922 86.24461868 -103.52353354 74.24805478 -101.40492249 62.25257874 C-100.72555683 58.4057306 -100.04719144 54.55870698 -99.36889648 50.71166992 C-98.5215133 45.9063026 -97.66892635 41.10190231 -96.81274414 36.2980957 C-94.44276728 22.93494039 -92.34306694 9.57168451 -90.5 -3.875 C-83.9 -3.875 -77.3 -3.875 -70.5 -3.875 C-70.5 0.085 -70.5 4.045 -70.5 8.125 C-69.76136719 7.66609375 -69.02273438 7.2071875 -68.26171875 6.734375 C-61.51683395 2.6548767 -55.03340295 -0.563615 -47.5 -2.875 C-46.613125 -3.1740625 -45.72625 -3.473125 -44.8125 -3.78125 C-31.20072131 -7.86478361 -11.9963615 -8.50930212 0 0 Z " fill="#47328E" transform="translate(494.5,169.875)"/>
<path d="M0 0 C8.07143401 6.43035406 12.76091775 15.30895587 14.625 25.375 C17.12779039 49.2197666 12.18949121 72.93884435 -2.78491211 92.03466797 C-10.91864352 101.98203035 -22.07333016 109.91940336 -35 112 C-45.63896104 112.99963392 -53.97499571 111.25244292 -62.76171875 105.05078125 C-71.4018356 97.85714136 -77.06472895 88.11960825 -79 77 C-79.30401301 72.64248023 -79.19481538 68.3608674 -79 64 C-78.98066406 62.88496094 -78.96132812 61.76992187 -78.94140625 60.62109375 C-78.23442662 41.7897273 -70.36822159 21.89344695 -56.859375 8.55859375 C-41.27381639 -5.38750036 -18.73884794 -12.04102679 0 0 Z " fill="#FDFDFE" transform="translate(318,187)"/>
<path d="M0 0 C9.59554279 7.66909539 13.8840015 17.79907796 16.85546875 29.4453125 C17.03126465 30.05552246 17.20706055 30.66573242 17.38818359 31.29443359 C22.86012642 56.48138047 14.3315096 83.34652978 1.1015625 104.54931641 C-10.70520387 122.51392214 -28.57145866 135.48528801 -49.74609375 140 C-68.4569104 142.45176218 -86.45001152 140.60480459 -102.14453125 129.4453125 C-112.61690067 121.34668015 -117.89067537 108.82290615 -119.84716797 96.02539062 C-123.33105701 65.79736159 -115.38755697 39.11825432 -96.73828125 15.3828125 C-72.9835573 -12.38244926 -30.46621697 -22.08661995 0 0 Z M-80.8203125 25.23828125 C-92.33872827 39.30254633 -97.63732212 57.5915512 -98.14453125 75.4453125 C-98.20769531 76.5384375 -98.27085937 77.6315625 -98.3359375 78.7578125 C-98.84807528 92.50292977 -94.50683094 103.31975064 -85.3359375 113.44140625 C-78.45755171 120.09098918 -70.08070799 123.68629358 -60.51953125 123.9453125 C-47.02516974 123.33485329 -34.41355656 117.28558987 -25.14453125 107.4453125 C-8.81289381 88.6426273 -3.1802018 65.94917106 -4.14453125 41.4453125 C-4.51219526 37.98740925 -5.16066337 34.77795168 -6.14453125 31.4453125 C-6.37785156 30.62804687 -6.61117187 29.81078125 -6.8515625 28.96875 C-9.90457974 19.96304616 -15.89012989 12.81385575 -24.33203125 8.3828125 C-45.11094849 -1.30023185 -66.58764144 10.01031851 -80.8203125 25.23828125 Z " fill="#47318E" transform="translate(337.14453125,175.5546875)"/>
<path d="M0 0 C3.89577274 3.32312018 7.21550132 7.22041412 10.4375 11.1875 C8.89521856 15.58814304 5.42323023 17.78345898 1.8125 20.4375 C1.20148438 20.89640625 0.59046875 21.3553125 -0.0390625 21.828125 C-1.5415792 22.95501252 -3.05134409 24.07222437 -4.5625 25.1875 C-5.31273437 24.43597656 -6.06296875 23.68445313 -6.8359375 22.91015625 C-7.73570312 22.01167969 -8.63546875 21.11320312 -9.5625 20.1875 C-10.17351562 19.56746094 -10.78453125 18.94742188 -11.4140625 18.30859375 C-19.79881384 10.34862056 -28.68701628 8.57763224 -39.92919922 8.71679688 C-53.15850207 9.24006827 -63.88563391 15.67459175 -72.91015625 25.1875 C-88.38523345 43.91856271 -93.34175585 67.62438593 -91.2890625 91.34765625 C-89.27210062 104.26762907 -84.32064692 115.74314923 -73.56640625 123.65625 C-64.1452153 129.32922519 -52.09607234 128.08800504 -41.8125 125.625 C-31.69331384 122.61144926 -24.19268136 117.55418943 -17.31640625 109.59375 C-15.5625 108.1875 -15.5625 108.1875 -13.66796875 108.21484375 C-10.84881707 109.51719768 -8.70112104 111.26995887 -6.3125 113.25 C-5.42046875 113.98347656 -4.5284375 114.71695313 -3.609375 115.47265625 C-2.59617188 116.32150391 -2.59617188 116.32150391 -1.5625 117.1875 C-8.84198726 129.84747785 -22.99726434 137.818766 -36.5625 142.1875 C-54.59410363 146.48757031 -74.57089957 146.55367112 -90.9375 137.3125 C-92.49675356 136.29734785 -94.04014417 135.25719074 -95.5625 134.1875 C-96.51576172 133.52814453 -96.51576172 133.52814453 -97.48828125 132.85546875 C-107.61153639 125.06662278 -113.16544016 111.7201756 -115.1796875 99.41796875 C-118.1759882 71.33690795 -112.05015602 44.35795478 -94.625 21.875 C-73.21853895 -3.52955494 -30.61360466 -21.20297097 0 0 Z " fill="#47318E" transform="translate(184.5625,171.8125)"/>
<path d="M0 0 C6.93 0 13.86 0 21 0 C20.33672382 8.30142509 19.24375121 16.46480934 17.9375 24.6875 C16.9784375 30.7821875 16.9784375 30.7821875 16 37 C27.55 37 39.1 37 51 37 C48.69918699 46.20325203 48.69918699 46.20325203 47.4375 50.4375 C47.18871094 51.28183594 46.93992187 52.12617188 46.68359375 52.99609375 C46 55 46 55 45 56 C42.55169574 56.08843793 40.13179401 56.11528752 37.68359375 56.09765625 C36.58701195 56.09553383 36.58701195 56.09553383 35.46827698 56.09336853 C33.12464368 56.08775408 30.78110461 56.07519922 28.4375 56.0625 C26.85221492 56.05748686 25.26692834 56.05292363 23.68164062 56.04882812 C19.7877239 56.03777997 15.89387795 56.02050572 12 56 C11.82306862 57.16755829 11.82306862 57.16755829 11.64256287 58.35870361 C10.39818024 66.51561031 9.08138816 74.65830431 7.72265625 82.796875 C7.40463295 84.70644989 7.40463295 84.70644989 7.08018494 86.65460205 C6.63446709 89.33036949 6.18817492 92.00604029 5.74145508 94.68164062 C5.17785575 98.05756314 4.61570956 101.43372569 4.05398941 104.80996132 C3.50685461 108.0974011 2.95853881 111.38464311 2.41015625 114.671875 C2.19917297 115.9376236 1.9881897 117.20337219 1.77081299 118.50747681 C0.88207422 123.81884906 -0.01302784 129.1279968 -0.97167969 134.42724609 C-1.11295792 135.20827698 -1.25423615 135.98930786 -1.39979553 136.79400635 C-1.75664329 138.74655228 -2.12048042 140.69781761 -2.48510742 142.64892578 C-3.72162183 150.69652976 -4.42915199 158.88172001 0 166 C8.14198038 171.31465532 21.94297223 167.38577474 31 166 C31.02699725 168.27076842 31.04639453 170.54162821 31.0625 172.8125 C31.07410156 174.07707031 31.08570313 175.34164062 31.09765625 176.64453125 C31 180 31 180 30 183 C20.13267071 189.22970458 3.65417015 188.08031775 -7.5 186.375 C-14.57642977 184.61493399 -20.24976991 180.97422069 -24.0625 174.6875 C-34.35548156 150.15649167 -18.93702314 106.95655335 -14.38763428 81.78842163 C-12.84348536 73.20528859 -11.4144706 64.60542827 -10 56 C-16.6 56 -23.2 56 -30 56 C-29 48 -29 48 -27 41 C-20.4 39.68 -13.8 38.36 -7 37 C-4.69 24.79 -2.38 12.58 0 0 Z " fill="#47318E" transform="translate(811,129)"/>
<path d="M0 0 C6.93 0 13.86 0 21 0 C21 7.87347261 21 7.87347261 20.40844727 11.06860352 C20.276978 11.79683823 20.14550873 12.52507294 20.01005554 13.27537537 C19.86365128 14.05204056 19.71724701 14.82870575 19.56640625 15.62890625 C19.41335526 16.47062881 19.26030426 17.31235138 19.10261536 18.17958069 C18.76941371 20.01081441 18.43365922 21.84158506 18.09564209 23.67193604 C17.16744386 28.70439624 16.26133799 33.74082363 15.35546875 38.77734375 C15.16357971 39.84291504 14.97169067 40.90848633 14.77398682 42.00634766 C12.53002654 54.52731575 10.45108512 67.07530888 8.375 79.625 C7.99424651 81.92140428 7.61338783 84.21779112 7.23242188 86.51416016 C6.6767632 89.86412836 6.12117215 93.21410761 5.56594849 96.56414795 C4.03853132 105.77768408 2.50536639 114.99018764 0.94195557 124.19769287 C0.69305294 125.66688698 0.44556744 127.13632202 0.199646 128.60601807 C-0.1326617 130.59084521 -0.47048629 132.57474634 -0.80859375 134.55859375 C-0.99220459 135.64454834 -1.17581543 136.73050293 -1.36499023 137.84936523 C-2.05565729 141.27614659 -3.03965999 144.63880996 -4 148 C-10.93 148 -17.86 148 -25 148 C-23.68271559 135.55131748 -21.75244828 123.31937969 -19.51669312 111.00524902 C-18.5041407 105.42364656 -17.50956298 99.83884907 -16.515625 94.25390625 C-16.20572884 92.51389847 -16.20572884 92.51389847 -15.88957214 90.73873901 C-13.16749214 75.39207731 -10.63385457 60.01388588 -8.09545898 44.63598633 C-6.35932969 34.1221518 -4.60900479 23.61108638 -2.80078125 13.109375 C-2.63450729 12.13470276 -2.46823334 11.16003052 -2.29692078 10.15582275 C-2.14133194 9.25845398 -1.9857431 8.36108521 -1.82543945 7.43652344 C-1.68975052 6.64936951 -1.55406158 5.86221558 -1.41426086 5.0512085 C-1 3 -1 3 0 0 Z " fill="#47328E" transform="translate(732,166)"/>
<path d="M0 0 C1.3479743 0.63654342 2.68596724 1.29605388 4 2 C6.08652125 1.59306672 6.08652125 1.59306672 8 1 C8.09906509 6.32017615 8.17156072 11.63981247 8.21972656 16.96069336 C8.23981053 18.7697078 8.26708341 20.57865757 8.30175781 22.38745117 C8.35041892 24.99153621 8.37300051 27.59476115 8.390625 30.19921875 C8.41127014 31.00461594 8.43191528 31.81001312 8.45318604 32.63981628 C8.45477127 36.6296673 8.29650486 38.53363368 6.10058594 41.98754883 C2.39139352 45.54111381 -0.50654801 45.2037569 -5.4453125 45.16796875 C-8.53825614 44.96461007 -11.14949648 44.20021201 -14 43 C-13.67 42.01 -13.34 41.02 -13 40 C-12.01 40.33 -11.02 40.66 -10 41 C-7.98257505 41.14390411 -5.95983585 41.22051272 -3.9375 41.25 C-2.87402344 41.27578125 -1.81054688 41.3015625 -0.71484375 41.328125 C0.18105469 41.21984375 1.07695313 41.1115625 2 41 C4.4294516 37.3558226 4.16179575 35.28758728 4 31 C3.42894531 31.32226562 2.85789062 31.64453125 2.26953125 31.9765625 C-1.97208921 33.88930701 -6.59445744 33.78462033 -11 32.34765625 C-14.82779638 30.4255085 -17.40362708 27.97421154 -19.3359375 24.05078125 C-20.90543806 19.20379421 -20.96568522 14.49112603 -19.1171875 9.72265625 C-14.74600411 1.95005532 -8.80348811 -0.86591686 0 0 Z " fill="#FBFBFC" transform="translate(759,358)"/>
<path d="M0 0 C3.23219869 2.72384819 4.46006571 4.71614245 4.97265625 8.953125 C5.24060466 14.9535454 4.83643112 18.77890825 0.6640625 23.40234375 C-3.96138706 27.57652994 -7.07436542 28.50084608 -13.30078125 28.6328125 C-15.3359375 28.40234375 -15.3359375 28.40234375 -19.3359375 26.40234375 C-19.6659375 31.02234375 -19.9959375 35.64234375 -20.3359375 40.40234375 C-21.3259375 40.40234375 -22.3159375 40.40234375 -23.3359375 40.40234375 C-23.3359375 26.21234375 -23.3359375 12.02234375 -23.3359375 -2.59765625 C-6.53298765 -4.69802498 -6.53298765 -4.69802498 0 0 Z " fill="#FCFBFD" transform="translate(742.3359375,427.59765625)"/>
<path d="M0 0 C3.71958068 3.59495555 6.13875003 6.90932751 6.375 12.125 C6.32326643 17.47080187 4.3476172 20.93503626 1 25 C-2.95836203 28.60909479 -6.47350085 29.11670662 -11.76953125 29.328125 C-14 29 -14 29 -20 26 C-20 30.95 -20 35.9 -20 41 C-20.66 41 -21.32 41 -22 41 C-22 26.81 -22 12.62 -22 -2 C-6.97959184 -3.87755102 -6.97959184 -3.87755102 0 0 Z " fill="#F9F8FB" transform="translate(777,427)"/>
<path d="M0 0 C2.73155281 1.77868555 3.98936589 3.00842677 5.6875 5.75 C6.11987305 8.13183594 6.11987305 8.13183594 6.19921875 10.734375 C6.25239258 12.13623047 6.25239258 12.13623047 6.30664062 13.56640625 C6.32919922 14.53449219 6.35175781 15.50257813 6.375 16.5 C6.42624023 17.97533203 6.42624023 17.97533203 6.47851562 19.48046875 C6.56085273 21.90353199 6.63004838 24.32623998 6.6875 26.75 C8.3375 27.08 9.9875 27.41 11.6875 27.75 C11.6875 28.41 11.6875 29.07 11.6875 29.75 C9.3775 30.08 7.0675 30.41 4.6875 30.75 C4.3575 29.76 4.0275 28.77 3.6875 27.75 C2.90375 28.245 2.12 28.74 1.3125 29.25 C-4.17455845 31.52050695 -9.45656226 31.49502724 -15.1875 30 C-17.85427804 28.43130704 -19.50232921 27.29764778 -21.3125 24.75 C-22.02678571 19.75 -22.02678571 19.75 -21.3125 16.75 C-18.875 13.8125 -18.875 13.8125 -16.3125 11.75 C-15.9825 11.42 -15.6525 11.09 -15.3125 10.75 C-13.96982587 10.66368126 -12.62275678 10.64293527 -11.27734375 10.65234375 C-10.46845703 10.65556641 -9.65957031 10.65878906 -8.82617188 10.66210938 C-7.97603516 10.67048828 -7.12589844 10.67886719 -6.25 10.6875 C-5.39599609 10.69201172 -4.54199219 10.69652344 -3.66210938 10.70117188 C-1.54554337 10.71299627 0.57098685 10.73093231 2.6875 10.75 C1.16194034 5.93877153 1.16194034 5.93877153 -2.3125 2.75 C-8.42901714 2.10222222 -12.86526229 2.96843181 -18.3125 5.75 C-18.6425 4.76 -18.9725 3.77 -19.3125 2.75 C-12.64885858 -1.21982893 -7.5879959 -2.86339468 0 0 Z " fill="#533F95" transform="translate(838.3125,359.25)"/>
<path d="M0 0 C2.91889038 1.84135608 5.43149132 3.86298264 7 7 C7.61673315 12.96175374 6.87887445 16.38273789 3.41015625 21.30078125 C0.87785596 24.35216802 -1.18575578 25.73845749 -5.140625 26.30859375 C-9.16686634 26.52857051 -11.41857255 26.34638231 -14.9375 24.25 C-17.38217245 21.5830846 -18.89233872 19.51830003 -19.15234375 15.8515625 C-18.60386519 10.16733012 -17.36734978 6.98758023 -13 3 C-8.62541805 0.61386439 -4.97931864 -0.8475436 0 0 Z " fill="#48338F" transform="translate(761,105)"/>
<path d="M0 0 C3.58164874 1.99745795 5.23375138 3.2452909 7.25 6.8125 C7.58 9.7825 7.91 12.7525 8.25 15.8125 C-0.66 15.8125 -9.57 15.8125 -18.75 15.8125 C-17.36243305 22.36164772 -17.36243305 22.36164772 -14.8125 25.25 C-8.87804851 28.27778137 -2.08934344 27.22507109 4.25 25.8125 C4.25 26.8025 4.25 27.7925 4.25 28.8125 C-2.37447978 31.06764205 -8.56926966 32.37285828 -15.0625 29.1875 C-18.94388704 25.75743704 -21.41850112 23.27506309 -22.1328125 17.96875 C-22.31096164 13.17059977 -22.16347955 9.70307134 -20.125 5.3125 C-13.8496179 -1.29316537 -8.55101745 -2.70782219 0 0 Z " fill="#4E3A93" transform="translate(835.75,425.1875)"/>
<path d="M0 0 C1.3479743 0.63654342 2.68596724 1.29605388 4 2 C6.08652125 1.59306672 6.08652125 1.59306672 8 1 C8.09906509 6.32017615 8.17156072 11.63981247 8.21972656 16.96069336 C8.23981053 18.7697078 8.26708341 20.57865757 8.30175781 22.38745117 C8.35041892 24.99153621 8.37300051 27.59476115 8.390625 30.19921875 C8.41127014 31.00461594 8.43191528 31.81001312 8.45318604 32.63981628 C8.45477127 36.6296673 8.29650486 38.53363368 6.10058594 41.98754883 C2.39139352 45.54111381 -0.50654801 45.2037569 -5.4453125 45.16796875 C-8.53825614 44.96461007 -11.14949648 44.20021201 -14 43 C-13.67 42.01 -13.34 41.02 -13 40 C-12.01 40.33 -11.02 40.66 -10 41 C-7.98257505 41.14390411 -5.95983585 41.22051272 -3.9375 41.25 C-2.87402344 41.27578125 -1.81054688 41.3015625 -0.71484375 41.328125 C0.18105469 41.21984375 1.07695313 41.1115625 2 41 C4.4294516 37.3558226 4.16179575 35.28758728 4 31 C3.42894531 31.32226562 2.85789062 31.64453125 2.26953125 31.9765625 C-1.97208921 33.88930701 -6.59445744 33.78462033 -11 32.34765625 C-14.82779638 30.4255085 -17.40362708 27.97421154 -19.3359375 24.05078125 C-20.90543806 19.20379421 -20.96568522 14.49112603 -19.1171875 9.72265625 C-14.74600411 1.95005532 -8.80348811 -0.86591686 0 0 Z M-14 7 C-16.75122087 11.76878284 -18.27681142 16.56291138 -17 22 C-15.09217148 25.75061743 -12.8417308 28.35982619 -8.80859375 29.76171875 C-3.73370688 30.56030501 -0.38783897 29.85209533 4 27 C6.3209256 24.6790744 5.32762762 19.23865744 5.375 16.125 C5.41238281 15.20074219 5.44976563 14.27648437 5.48828125 13.32421875 C5.52138633 10.78984084 5.48854119 8.48772217 5 6 C1.9443084 3.17492664 0.22682953 3.02520328 -3.9375 2.5625 C-8.24529758 2.75757008 -10.76909056 4.06964027 -14 7 Z " fill="#564297" transform="translate(759,358)"/>
<path d="M0 0 C3.23219869 2.72384819 4.46006571 4.71614245 4.97265625 8.953125 C5.24060466 14.9535454 4.83643112 18.77890825 0.6640625 23.40234375 C-3.96138706 27.57652994 -7.07436542 28.50084608 -13.30078125 28.6328125 C-15.3359375 28.40234375 -15.3359375 28.40234375 -19.3359375 26.40234375 C-19.6659375 31.02234375 -19.9959375 35.64234375 -20.3359375 40.40234375 C-21.3259375 40.40234375 -22.3159375 40.40234375 -23.3359375 40.40234375 C-23.3359375 26.21234375 -23.3359375 12.02234375 -23.3359375 -2.59765625 C-6.53298765 -4.69802498 -6.53298765 -4.69802498 0 0 Z M-20.3359375 2.40234375 C-21.10317249 5.55439757 -21.03328426 8.6107668 -20.9609375 11.83984375 C-20.98027344 12.69900391 -20.99960937 13.55816406 -21.01953125 14.44335938 C-20.98640011 18.71396328 -20.96037391 20.70118478 -18.046875 23.97265625 C-14.25331678 25.97329358 -11.51732973 26.11479192 -7.3359375 25.40234375 C-4.12769503 23.90516393 -1.60661636 22.12715839 0.6640625 19.40234375 C2.32443008 14.42124102 2.46265097 9.44318096 0.5390625 4.52734375 C-2.27373213 1.33950983 -5.07802061 -0.27446422 -9.328125 -0.8828125 C-13.88863722 -1.08072152 -16.93916519 -0.658802 -20.3359375 2.40234375 Z " fill="#513C94" transform="translate(742.3359375,427.59765625)"/>
<path d="M0 0 C3.71958068 3.59495555 6.13875003 6.90932751 6.375 12.125 C6.32326643 17.47080187 4.3476172 20.93503626 1 25 C-2.95836203 28.60909479 -6.47350085 29.11670662 -11.76953125 29.328125 C-14 29 -14 29 -20 26 C-20 30.95 -20 35.9 -20 41 C-20.66 41 -21.32 41 -22 41 C-22 26.81 -22 12.62 -22 -2 C-6.97959184 -3.87755102 -6.97959184 -3.87755102 0 0 Z M-20 3 C-20.16250994 5.89809389 -20.28107636 8.78704851 -20.375 11.6875 C-20.42527344 12.50412109 -20.47554687 13.32074219 -20.52734375 14.16210938 C-20.68189562 18.69945539 -20.68189562 18.69945539 -18.77832031 22.67797852 C-16.10521265 25.0360834 -13.60803766 26.69028467 -10 26.5625 C-5.79893744 26.27332552 -3.20569224 24.75838634 0 22 C3.13893475 18.33790946 3.5819516 14.90397433 3.41796875 10.21875 C2.68157183 6.30965232 0.92852992 4.66821615 -2 2 C-8.34056705 -1.67085461 -13.86773542 -0.26881614 -20 3 Z " fill="#554297" transform="translate(777,427)"/>
<path d="M0 0 C0.76945755 10.07134434 0.76945755 10.07134434 -1.8125 13.1875 C-6.61625005 14.41198531 -11.08609788 14.77239479 -16 14 C-19.25 11.9375 -19.25 11.9375 -21 9 C-21.125 5.375 -21.125 5.375 -20 2 C-14.93272145 -3.06727855 -6.4110196 -1.41958291 0 0 Z " fill="#FAFAFC" transform="translate(841,373)"/>
<path d="M0 0 C1.9140625 1.10546875 1.9140625 1.10546875 4.7890625 3.10546875 C4.4590625 3.76546875 4.1290625 4.42546875 3.7890625 5.10546875 C2.8196875 4.77546875 1.8503125 4.44546875 0.8515625 4.10546875 C-4.12201085 2.6902243 -9.52981656 2.07825546 -14.43359375 3.95703125 C-16.496216 5.01329525 -16.496216 5.01329525 -16.9609375 7.73046875 C-17.0434375 8.51421875 -17.1259375 9.29796875 -17.2109375 10.10546875 C-13.11760901 12.83435441 -9.26002572 12.8743698 -4.4375 13.4453125 C0.45062001 14.44542422 3.02082714 15.95311571 5.7890625 20.10546875 C5.6332639 23.76673573 5.22269854 25.58790316 2.8515625 28.41796875 C-1.88592124 32.29409181 -7.33188048 31.55482343 -13.2109375 31.10546875 C-15.82962715 30.35602679 -17.80519975 29.41768934 -20.2109375 28.10546875 C-20.2109375 27.11546875 -20.2109375 26.12546875 -20.2109375 25.10546875 C-15.4609375 25.98046875 -15.4609375 25.98046875 -13.2109375 27.10546875 C-11.42341258 27.25301049 -9.6293091 27.32662095 -7.8359375 27.35546875 C-6.87945313 27.38125 -5.92296875 27.40703125 -4.9375 27.43359375 C-1.83201603 27.05986789 -0.50557684 26.17173166 1.7890625 24.10546875 C1.2940625 21.63046875 1.2940625 21.63046875 0.7890625 19.10546875 C-2.76378111 17.73899044 -5.93963898 16.9920986 -9.7109375 16.73046875 C-14.59415584 16.28504005 -17.70901089 14.60739536 -21.2109375 11.10546875 C-21.05117687 6.8718121 -20.88405365 4.7785849 -17.8359375 1.73046875 C-12.5526745 -1.54012263 -5.85171688 -2.36756743 0 0 Z " fill="#594599" transform="translate(669.2109375,424.89453125)"/>
<path d="M0 0 C1.92578125 1.09765625 1.92578125 1.09765625 4.80078125 3.09765625 C4.47078125 3.75765625 4.14078125 4.41765625 3.80078125 5.09765625 C3.01703125 4.76765625 2.23328125 4.43765625 1.42578125 4.09765625 C-3.72541801 2.67663577 -9.490631 1.90404131 -14.50390625 4.11328125 C-15.06335938 4.438125 -15.6228125 4.76296875 -16.19921875 5.09765625 C-16.19921875 7.07765625 -16.19921875 9.05765625 -16.19921875 11.09765625 C-13.70073006 12.34690059 -11.73650297 12.31273011 -8.94921875 12.47265625 C-4.3937672 12.85426476 -1.09967286 13.56236108 2.80078125 16.09765625 C3.44015625 16.48953125 4.07953125 16.88140625 4.73828125 17.28515625 C6.27516753 19.90690343 6.0076383 22.23530036 5.48046875 25.15625 C4.80078125 27.09765625 4.80078125 27.09765625 2.48828125 29.59765625 C-3.27865363 31.94352806 -9.62326273 32.4873075 -15.53125 30.19140625 C-17.44921875 29.09765625 -17.44921875 29.09765625 -20.19921875 27.09765625 C-19.86921875 26.43765625 -19.53921875 25.77765625 -19.19921875 25.09765625 C-18.43609375 25.42765625 -17.67296875 25.75765625 -16.88671875 26.09765625 C-10.81440653 27.74438499 -4.27564893 27.88064633 1.80078125 26.09765625 C2.13475912 23.223525 2.13475912 23.223525 1.80078125 20.09765625 C-1.28443061 16.96857882 -3.79288045 16.75275517 -8.07421875 16.66015625 C-13.40681586 16.32808976 -16.34098794 15.85161055 -20.19921875 12.09765625 C-21.26171875 9.66015625 -21.26171875 9.66015625 -21.19921875 7.09765625 C-19.86363656 3.79798259 -18.54306583 2.34086516 -15.63671875 0.28515625 C-10.45437895 -1.50510659 -5.18532408 -2.1275486 0 0 Z " fill="#533E95" transform="translate(870.19921875,424.90234375)"/>
<path d="M0 0 C-0.33 0.66 -0.66 1.32 -1 2 C-1.969375 1.67 -2.93875 1.34 -3.9375 1 C-8.91107335 -0.41524445 -14.31887906 -1.02721329 -19.22265625 0.8515625 C-21.2852785 1.9078265 -21.2852785 1.9078265 -21.75 4.625 C-21.8325 5.40875 -21.915 6.1925 -22 7 C-17.54615999 9.22692 -13.76830797 10.24415052 -8.8125 10.875 C-4.90644528 11.47216626 -3.32732492 11.73814006 -0.1875 14.25 C1.32594514 17.75482032 1.22639835 19.39745485 0 23 C-1.89121793 25.25726011 -3.37292849 26.68646424 -6 28 C-13.03269384 28.55493184 -18.7606639 28.40327424 -25 25 C-25 24.01 -25 23.02 -25 22 C-20.25 22.875 -20.25 22.875 -18 24 C-16.21247508 24.14754174 -14.4183716 24.2211522 -12.625 24.25 C-11.66851563 24.27578125 -10.71203125 24.3015625 -9.7265625 24.328125 C-6.62107853 23.95439914 -5.29463934 23.06626291 -3 21 C-3.495 18.525 -3.495 18.525 -4 16 C-8.99454304 14.05767771 -13.90847342 13.39008079 -19.1953125 12.7578125 C-22.55162974 11.85095241 -23.90289848 10.74620437 -26 8 C-26.125 4.5 -26.125 4.5 -25 1 C-16.94532336 -5.80172694 -8.47214069 -5.64809379 0 0 Z " fill="#584599" transform="translate(674,362)"/>
<path d="M0 0 C0.99 0 1.98 0 3 0 C3.01458252 0.7113208 3.02916504 1.4226416 3.04418945 2.15551758 C3.11861006 5.37506332 3.21529 8.59356518 3.3125 11.8125 C3.33505859 12.93205078 3.35761719 14.05160156 3.38085938 15.20507812 C3.41630859 16.27822266 3.45175781 17.35136719 3.48828125 18.45703125 C3.51446533 19.44678955 3.54064941 20.43654785 3.56762695 21.45629883 C4.05989253 24.35235478 4.67081093 25.26918389 7 27 C8.99928985 27.54867781 8.99928985 27.54867781 11.1875 27.5 C11.90292969 27.5309375 12.61835937 27.561875 13.35546875 27.59375 C17.60041408 26.64067512 20.99785369 25.22878107 24 22 C25.1225485 18.22337551 25.07518768 14.60477834 25 10.6875 C25.01160156 9.66076172 25.02320313 8.63402344 25.03515625 7.57617188 C25.0586671 5.048755 25.04578854 2.526955 25 0 C25.66 0 26.32 0 27 0 C27 10.23 27 20.46 27 31 C26.34 31 25.68 31 25 31 C25 29.35 25 27.7 25 26 C24.45472656 26.3609375 23.90945313 26.721875 23.34765625 27.09375 C18.58142378 30.02681614 14.74614693 31.81742855 9.08203125 31.5 C5.41609643 30.61962541 3.57756918 28.70644764 1 26 C-0.30475618 23.39048764 -0.11301572 21.47298715 -0.09765625 18.5546875 C-0.09443359 17.47832031 -0.09121094 16.40195312 -0.08789062 15.29296875 C-0.07951172 14.16503906 -0.07113281 13.03710938 -0.0625 11.875 C-0.05798828 10.73933594 -0.05347656 9.60367187 -0.04882812 8.43359375 C-0.03701615 5.62234362 -0.02054507 2.8111977 0 0 Z " fill="#584599" transform="translate(683,359)"/>
<path d="M0 0 C3.88174795 2.0127582 6.62514936 3.737963 8 8 C8 8.99 8 9.98 8 11 C0.08 11 -7.84 11 -16 11 C-14.91910497 5.59552487 -13.98080159 4.49533798 -10 1 C-6.78501861 -0.6074907 -3.48701742 -0.47314549 0 0 Z " fill="#FAF9FB" transform="translate(833,427)"/>
<path d="M0 0 C0.99 0 1.98 0 3 0 C3.0093457 0.67579102 3.01869141 1.35158203 3.02832031 2.04785156 C3.08207301 5.1159711 3.16570992 8.18257387 3.25 11.25 C3.26417969 12.31347656 3.27835938 13.37695312 3.29296875 14.47265625 C3.32519531 15.49746094 3.35742188 16.52226562 3.390625 17.578125 C3.41157227 18.52075195 3.43251953 19.46337891 3.45410156 20.43457031 C4.15535717 23.73009534 5.37698759 24.94117824 8 27 C13.42445071 27.95725601 17.41266205 26.46724334 22.05932617 23.80297852 C24.56430158 21.47573693 24.7683862 20.07139821 25.09765625 16.69921875 C25.13072007 14.69555102 25.11760995 12.69068259 25.0625 10.6875 C25.06958984 9.66076172 25.07667969 8.63402344 25.08398438 7.57617188 C25.09574346 5.04796933 25.06646229 2.52715705 25 0 C25.66 0 26.32 0 27 0 C27 9.9 27 19.8 27 30 C26.34 30 25.68 30 25 30 C25 28.68 25 27.36 25 26 C24.39414062 26.37253906 23.78828125 26.74507813 23.1640625 27.12890625 C17.65420725 30.23985529 13.63628088 31.53342626 7.32421875 30.98046875 C3.73831928 29.46776158 1.62818021 27.47386071 0 24 C-0.59648428 19.85415725 -0.47240851 15.80230242 -0.3125 11.625 C-0.28994141 10.50738281 -0.26738281 9.38976562 -0.24414062 8.23828125 C-0.18543378 5.4908011 -0.10336846 2.74610239 0 0 Z " fill="#594599" transform="translate(683,425)"/>
<path d="M0 0 C0.804375 0.495 1.60875 0.99 2.4375 1.5 C2.4375 2.49 2.4375 3.48 2.4375 4.5 C1.4475 4.17 0.4575 3.84 -0.5625 3.5 C-6.10584956 1.95458134 -10.64876077 1.50769077 -15.9375 4.25 C-18.95786671 6.83888575 -20.25654868 8.72870291 -20.93359375 12.6484375 C-21.0598398 16.88139331 -20.93600209 19.64342222 -18.1875 23 C-14.08654225 26.90567405 -11.51438487 26.70750278 -6.05078125 26.66796875 C-3.23476057 26.4778763 -1.0534964 25.82853141 1.4375 24.5 C1.4375 25.82 1.4375 27.14 1.4375 28.5 C-3.34643735 31.05143325 -8.27873353 31.18697445 -13.5625 30.5 C-18.54919007 28.00665497 -22.05925474 24.50649051 -24.5625 19.5 C-25.10610446 14.54517906 -25.12687074 10.62874148 -22.875 6.125 C-16.44077392 -1.17871609 -9.21466091 -3.87985723 0 0 Z " fill="#574398" transform="translate(810.5625,359.5)"/>
<path d="M0 0 C0.99 0 1.98 0 3 0 C3 16.17 3 32.34 3 49 C2.01 49 1.02 49 0 49 C0 32.83 0 16.66 0 0 Z " fill="#452F8D" transform="translate(791,407)"/>
<path d="M0 0 C0.99 0 1.98 0 3 0 C3 16.17 3 32.34 3 49 C2.01 49 1.02 49 0 49 C0 32.83 0 16.66 0 0 Z " fill="#452F8D" transform="translate(857,341)"/>
<path d="M0 0 C2.475 0.495 2.475 0.495 5 1 C4.67 2.32 4.34 3.64 4 5 C3.34 5 2.68 5 2 5 C2.03304209 7.91971883 2.10022323 10.8318228 2.1875 13.75 C2.19330078 14.575 2.19910156 15.4 2.20507812 16.25 C2.38011634 21.39442624 2.38011634 21.39442624 5.3125 25.53125 C8.55502987 27.30333028 11.33824542 27.71280356 15 28 C14.67 28.99 14.34 29.98 14 31 C8.61443879 31.38468294 7.28732917 30.64366459 2 28 C2 32.95 2 37.9 2 43 C1.34 43 0.68 43 0 43 C0 28.81 0 14.62 0 0 Z " fill="#4B3690" transform="translate(755,425)"/>
<path d="M0 0 C0.99 0 1.98 0 3 0 C3.33 1.65 3.66 3.3 4 5 C4.44730469 4.6390625 4.89460937 4.278125 5.35546875 3.90625 C10.35506003 0.06861063 10.35506003 0.06861063 13.9375 -0.3125 C14.618125 -0.209375 15.29875 -0.10625 16 0 C16 0.99 16 1.98 16 3 C13.50976562 3.9765625 13.50976562 3.9765625 11.01953125 4.953125 C8.08961486 6.47192112 6.25369507 7.50266222 4 10 C3.23334953 13.57541711 3.20935278 17.1030133 3.1875 20.75 C3.16236328 21.73355469 3.13722656 22.71710938 3.11132812 23.73046875 C3.05250339 26.15404766 3.01619081 28.57582278 3 31 C2.01 31 1.02 31 0 31 C0 20.77 0 10.54 0 0 Z " fill="#533E95" transform="translate(719,359)"/>
<path d="M0 0 C1.91796875 1.1015625 1.91796875 1.1015625 4.79296875 3.1015625 C4.46296875 3.7615625 4.13296875 4.4215625 3.79296875 5.1015625 C3.00921875 4.7715625 2.22546875 4.4415625 1.41796875 4.1015625 C-3.73323051 2.68054202 -9.4984435 1.90794756 -14.51171875 4.1171875 C-15.07117188 4.44203125 -15.630625 4.766875 -16.20703125 5.1015625 C-16.20703125 7.0815625 -16.20703125 9.0615625 -16.20703125 11.1015625 C-13.63809287 12.38603169 -11.44126788 12.43133394 -8.58203125 12.6640625 C-7.57914063 12.74785156 -6.57625 12.83164062 -5.54296875 12.91796875 C-4.38667969 13.00884766 -4.38667969 13.00884766 -3.20703125 13.1015625 C-3.20703125 13.4315625 -3.20703125 13.7615625 -3.20703125 14.1015625 C-5.84703125 14.1015625 -8.48703125 14.1015625 -11.20703125 14.1015625 C-11.20703125 14.7615625 -11.20703125 15.4215625 -11.20703125 16.1015625 C-14.73478614 15.79918351 -16.2451199 15.07175399 -19.08203125 12.8515625 C-21.20703125 10.1015625 -21.20703125 10.1015625 -21.26953125 7.5390625 C-17.61063345 -0.85487951 -8.18042796 -3.33008572 0 0 Z " fill="#554197" transform="translate(870.20703125,424.8984375)"/>
<path d="M0 0 C0.99 0 1.98 0 3 0 C3 10.56 3 21.12 3 32 C2.01 32 1.02 32 0 32 C0 21.44 0 10.88 0 0 Z " fill="#614E9D" transform="translate(804,424)"/>
<path d="M0 0 C0.99 0 1.98 0 3 0 C3 10.23 3 20.46 3 31 C2.01 31 1.02 31 0 31 C0 20.77 0 10.54 0 0 Z " fill="#503C94" transform="translate(776,359)"/>
<path d="M0 0 C4.02551119 2.37363784 6.87678527 4.6375408 8.73828125 9.05859375 C8.73828125 10.04859375 8.73828125 11.03859375 8.73828125 12.05859375 C8.07828125 12.05859375 7.41828125 12.05859375 6.73828125 12.05859375 C6.73828125 13.70859375 6.73828125 15.35859375 6.73828125 17.05859375 C6.40828125 17.05859375 6.07828125 17.05859375 5.73828125 17.05859375 C5.6403125 16.4553125 5.54234375 15.85203125 5.44140625 15.23046875 C4.53649453 10.39387161 3.91576792 7.09676587 -0.26171875 4.05859375 C-3.14383177 3.09788941 -4.96021919 2.95277492 -7.94921875 2.99609375 C-8.75746094 3.00511719 -9.56570313 3.01414062 -10.3984375 3.0234375 C-11.01332031 3.03503906 -11.62820313 3.04664063 -12.26171875 3.05859375 C-12.26171875 2.39859375 -12.26171875 1.73859375 -12.26171875 1.05859375 C-12.92171875 0.72859375 -13.58171875 0.39859375 -14.26171875 0.05859375 C-9.47048627 -1.53848374 -4.75032512 -1.97725104 0 0 Z " fill="#5D499B" transform="translate(738.26171875,424.94140625)"/>
<path d="M0 0 C2.625 1.625 2.625 1.625 4.625 3.625 C4.75 6.75 4.75 6.75 4.625 9.625 C3.965 9.625 3.305 9.625 2.625 9.625 C2.17125 8.655625 1.7175 7.68625 1.25 6.6875 C-0.03286221 3.55420418 -0.03286221 3.55420418 -2.375 2.625 C-8.49151714 1.97722222 -12.92776229 2.84343181 -18.375 5.625 C-18.705 4.635 -19.035 3.645 -19.375 2.625 C-12.69817651 -1.35268208 -7.55816419 -3.07925208 0 0 Z " fill="#574398" transform="translate(838.375,359.375)"/>
<path d="M0 0 C0.66 0 1.32 0 2 0 C2 9.9 2 19.8 2 30 C1.34 30 0.68 30 0 30 C0 28.68 0 27.36 0 26 C-0.99 26.66 -1.98 27.32 -3 28 C-3.99 27.67 -4.98 27.34 -6 27 C-5.19175781 26.40832031 -4.38351562 25.81664062 -3.55078125 25.20703125 C0.43746971 21.21878029 -0.21809312 16.00050569 -0.1875 10.6875 C-0.16236328 9.66076172 -0.13722656 8.63402344 -0.11132812 7.57617188 C-0.05258915 5.050396 -0.01621288 2.52634772 0 0 Z " fill="#48328E" transform="translate(708,425)"/>
<path d="M0 0 C0 0.33 0 0.66 0 1 C-1.03125 1.020625 -2.0625 1.04125 -3.125 1.0625 C-8.19416352 2.28891053 -10.25516066 4.68303906 -13 9 C-13.66 10.65 -14.32 12.3 -15 14 C-7.08 14 0.84 14 9 14 C9 14.33 9 14.66 9 15 C0.75 15 -7.5 15 -16 15 C-16 14.01 -16 13.02 -16 12 C-16.66 12 -17.32 12 -18 12 C-16.67761712 6.31375361 -14.55651636 4.32245984 -10 1 C-6.78548731 -0.60725635 -3.56387464 -0.05748185 0 0 Z " fill="#7565AA" transform="translate(832,424)"/>
<path d="M0 0 C0.66 0 1.32 0 2 0 C2 10.23 2 20.46 2 31 C1.34 31 0.68 31 0 31 C0 29.35 0 27.7 0 26 C-1.32 26.33 -2.64 26.66 -4 27 C-3.51917969 26.40832031 -3.03835938 25.81664062 -2.54296875 25.20703125 C-0.2616561 20.46536621 -0.42894827 15.88774721 -0.3125 10.6875 C-0.27833984 9.66076172 -0.24417969 8.63402344 -0.20898438 7.57617188 C-0.12676591 5.05089037 -0.05753064 2.5259446 0 0 Z " fill="#47318E" transform="translate(708,359)"/>
<path d="M0 0 C0.66 0.33 1.32 0.66 2 1 C2.33333333 2.33333333 2.66666667 3.66666667 3 5 C5.56893838 6.28446919 7.76576337 6.32977144 10.625 6.5625 C12.12933594 6.68818359 12.12933594 6.68818359 13.6640625 6.81640625 C14.43492187 6.87699219 15.20578125 6.93757813 16 7 C16 7.33 16 7.66 16 8 C13.36 8 10.72 8 8 8 C8 8.66 8 9.32 8 10 C4.39755548 9.69121904 3.00654002 9.00552268 0.1875 6.625 C-2 4 -2 4 -2 1 C-1.34 0.67 -0.68 0.34 0 0 Z " fill="#6A59A3" transform="translate(851,431)"/>
<path d="M0 0 C10.59145274 -0.55528005 10.59145274 -0.55528005 15 3 C16 4 16 4 16.0625 6.5625 C16.041875 7.366875 16.02125 8.17125 16 9 C15.01 9.495 15.01 9.495 14 10 C13.5978125 8.824375 13.5978125 8.824375 13.1875 7.625 C12.15185568 4.71885077 12.15185568 4.71885077 9 3 C6.72087062 2.54605448 6.72087062 2.54605448 4.3125 2.375 C3.50425781 2.30023438 2.69601562 2.22546875 1.86328125 2.1484375 C1.24839844 2.09945313 0.63351562 2.05046875 0 2 C0 1.34 0 0.68 0 0 Z " fill="#4A3590" transform="translate(859,439)"/>
<path d="M0 0 C0.33 0 0.66 0 1 0 C0.90257346 2.92279615 0.82360064 5.23354658 0 8 C-3.14773447 10.73716041 -4.80043283 12 -9 12 C-8.25 10.0625 -8.25 10.0625 -7 8 C-4.875 7.25 -4.875 7.25 -3 7 C-3 6.34 -3 5.68 -3 5 C-2.34 4.67 -1.68 4.34 -1 4 C-0.34786708 1.97536745 -0.34786708 1.97536745 0 0 Z " fill="#5F4C9D" transform="translate(875,444)"/>
<path d="M0 0 C0.71542969 0.14308594 1.43085937 0.28617187 2.16796875 0.43359375 C3.56982422 0.71396484 3.56982422 0.71396484 5 1 C8.99414062 1.79882812 8.99414062 1.79882812 12.98828125 2.59765625 C13.98408203 2.79681641 13.98408203 2.79681641 15 3 C15 3.33 15 3.66 15 4 C13.35 4 11.7 4 10 4 C10 4.66 10 5.32 10 6 C6.28111761 5.49287967 3.26545761 4.88391785 0 3 C0 2.01 0 1.02 0 0 Z " fill="#604D9D" transform="translate(649,384)"/>
<path d="M0 0 C0.66 0.33 1.32 0.66 2 1 C1 4 1 4 -0.5 5.4375 C-2.24185971 7.25193719 -2.57855013 8.55559077 -3 11 C-3.66 11 -4.32 11 -5 11 C-5.33 11.99 -5.66 12.98 -6 14 C-6.61514196 6.74132492 -6.61514196 6.74132492 -3.5625 3.0625 C-2.716875 2.381875 -1.87125 1.70125 -1 1 C-0.67 0.67 -0.34 0.34 0 0 Z " fill="#5D4A9B" transform="translate(823,370)"/>
<path d="M0 0 C2.1060986 0.25537572 4.20988754 0.52985374 6.3125 0.8125 C7.48425781 0.96332031 8.65601563 1.11414063 9.86328125 1.26953125 C12.99420274 1.99864995 14.09645193 2.49171464 16 5 C10.26157749 5.20413361 5.39460953 5.27141454 0 3 C0 2.01 0 1.02 0 0 Z " fill="#5C489B" transform="translate(745,398)"/>
<path d="M0 0 C6.93 0.495 6.93 0.495 14 1 C13.67 1.66 13.34 2.32 13 3 C9.04 3 5.08 3 1 3 C0.67 2.01 0.34 1.02 0 0 Z " fill="#4D3892" transform="translate(654,372)"/>
<path d="M0 0 C3.2578125 -0.29296875 3.2578125 -0.29296875 7.125 -0.1875 C9.04699219 -0.14689453 9.04699219 -0.14689453 11.0078125 -0.10546875 C11.99523437 -0.07066406 12.98265625 -0.03585937 14 0 C13.67 0.66 13.34 1.32 13 2 C10.45058627 2.31241371 7.99638487 2.51303421 5.4375 2.625 C4.37112305 2.68300781 4.37112305 2.68300781 3.28320312 2.7421875 C1.52257575 2.83671783 -0.23867728 2.91945817 -2 3 C-1.34 2.01 -0.68 1.02 0 0 Z " fill="#47328E" transform="translate(825,370)"/>
<path d="M0 0 C0.99 0 1.98 0 3 0 C2.42655063 2.86724686 2.1385485 3.8614515 0 6 C-2.1640625 6.1953125 -2.1640625 6.1953125 -4.625 6.125 C-5.44226563 6.10695313 -6.25953125 6.08890625 -7.1015625 6.0703125 C-7.72804688 6.04710937 -8.35453125 6.02390625 -9 6 C-6.94927604 4.9681892 -4.90059269 3.95455666 -2.8125 3 C-0.82798477 2.12855431 -0.82798477 2.12855431 0 0 Z " fill="#4C3791" transform="translate(763,396)"/>
<path d="M0 0 C2.64 0 5.28 0 8 0 C8.33 1.32 8.66 2.64 9 4 C5.7 3.67 2.4 3.34 -1 3 C-0.67 2.01 -0.34 1.02 0 0 Z " fill="#604D9D" transform="translate(751,358)"/>
<path d="M0 0 C0 0.33 0 0.66 0 1 C-1.5778125 1.0928125 -1.5778125 1.0928125 -3.1875 1.1875 C-7.6291735 2.13408616 -9.11593757 3.59156258 -12 7 C-12 4 -12 4 -10.5 1.8125 C-6.88104177 -0.81124472 -4.40344138 -0.29356276 0 0 Z " fill="#63519F" transform="translate(832,424)"/>
<path d="M0 0 C2.625 0.375 2.625 0.375 5 1 C5 1.99 5 2.98 5 4 C2.69 3.34 0.38 2.68 -2 2 C-1.34 1.34 -0.68 0.68 0 0 Z " fill="#523E95" transform="translate(668,360)"/>
</svg>
